<?xml version="1.0" standalone="no"?>
<!DOCTYPE svg PUBLIC "-//W3C//DTD SVG 20010904//EN"
 "http://www.w3.org/TR/2001/REC-SVG-20010904/DTD/svg10.dtd">
<svg version="1.0" xmlns="http://www.w3.org/2000/svg"
 width="178.000000pt" height="224.000000pt" viewBox="0 0 178.000000 224.000000"
 preserveAspectRatio="xMidYMid meet">

<g transform="translate(0.000000,224.000000) scale(0.100000,-0.100000)"
fill="#000000" stroke="none">
<path d="M1230 2230 c0 -5 9 -10 19 -10 11 0 23 5 26 10 4 6 -5 10 -19 10 -14
0 -26 -4 -26 -10z"/>
<path d="M1286 2224 c-15 -38 8 -104 33 -96 10 3 11 0 1 -18 -7 -12 -8 -25 -3
-29 4 -3 20 -25 35 -48 19 -29 24 -43 15 -47 -9 -5 -9 -7 1 -12 6 -3 12 -19
12 -35 0 -16 4 -29 9 -29 10 0 31 -48 34 -78 1 -12 5 -22 9 -22 5 0 5 -12 2
-26 -6 -23 -4 -25 14 -20 21 7 22 6 10 -44 -2 -9 4 -15 13 -14 11 1 14 -5 11
-23 -3 -18 -1 -22 12 -17 11 4 16 1 16 -10 0 -16 3 -24 33 -81 8 -16 17 -46
19 -65 l3 -35 -45 0 -45 0 -3 40 c-8 116 -75 250 -216 438 -55 73 -61 78 -90
73 -17 -3 -25 -3 -18 0 26 12 10 22 -50 28 -34 4 -79 16 -99 27 -21 10 -47 19
-58 19 -11 0 -21 5 -23 11 -2 7 -15 6 -38 -5 -19 -8 -66 -27 -105 -42 -38 -14
-81 -35 -94 -45 -13 -11 -29 -19 -36 -19 -6 0 -20 -10 -31 -22 -10 -12 -13
-18 -5 -13 10 5 12 4 7 -3 -4 -7 -13 -12 -19 -12 -7 0 -32 -32 -56 -70 -25
-38 -47 -68 -49 -65 -3 3 3 14 13 25 10 11 13 20 7 20 -15 0 -35 -38 -27 -50
4 -6 -17 -54 -46 -108 -68 -127 -89 -169 -89 -180 0 -6 -7 -22 -15 -38 -8 -16
-17 -48 -21 -71 -3 -24 -9 -43 -13 -43 -4 0 -8 -15 -8 -32 -1 -59 -28 -184
-43 -201 -4 -4 -14 6 -22 24 l-16 31 -12 -36 c-6 -20 -9 -42 -7 -49 3 -6 8 3
12 21 8 32 8 33 19 10 7 -13 9 -25 6 -28 -14 -10 -30 -50 -22 -50 6 0 12 10
15 22 4 12 8 20 11 17 9 -8 -16 -79 -26 -73 -4 3 -5 11 -2 17 5 8 4 9 -3 2
-14 -14 -35 -104 -27 -117 4 -5 2 -13 -3 -17 -6 -3 -15 -33 -20 -66 -10 -56
-11 -58 -13 -20 l-2 40 -9 -40 c-12 -62 -11 -144 2 -125 9 12 10 12 5 -3 -3
-10 -7 -60 -8 -110 l-2 -92 -6 90 -6 90 -3 -90 c-2 -49 -2 -103 -2 -120 4 -67
34 -193 57 -234 20 -37 21 -42 6 -27 -19 16 -21 16 -49 -13 -17 -16 -41 -43
-55 -59 -13 -16 -34 -33 -46 -36 -19 -6 -22 -14 -21 -54 l2 -47 10 38 c16 55
34 45 28 -16 -2 -14 6 -17 37 -17 40 0 40 0 68 68 15 37 34 74 41 83 7 9 10
19 6 24 -16 16 37 -16 83 -51 27 -21 60 -38 74 -40 13 -2 33 -13 44 -26 10
-13 30 -24 44 -25 14 -1 42 -9 64 -18 33 -13 122 -15 658 -15 l620 0 0 729 0
730 -51 3 -51 3 -30 80 c-16 44 -34 94 -40 110 -6 17 -46 127 -88 245 -43 118
-88 243 -101 278 -20 56 -24 62 -50 62 -26 0 -27 -2 -19 -27 4 -16 16 -54 26
-86 11 -39 20 -54 25 -45 6 9 9 7 9 -8 0 -11 3 -24 7 -27 6 -7 42 -100 47
-122 1 -5 5 -16 9 -22 4 -7 16 -36 26 -65 26 -75 129 -336 141 -359 9 -15 7
-19 -5 -19 -29 0 -52 19 -52 42 0 13 -10 45 -22 70 -11 26 -21 53 -21 60 0 8
-4 18 -10 24 -5 5 -25 54 -45 108 -20 55 -42 111 -49 125 -15 30 -36 86 -43
119 -3 12 -10 22 -15 22 -5 0 -6 4 -3 10 10 16 -13 85 -49 144 -25 41 -35 52
-40 40z m103 -84 c0 -10 -3 -8 -9 5 -12 27 -12 43 0 25 5 -8 9 -22 9 -30z
m-445 -261 c14 -7 23 -16 20 -20 -3 -5 4 -9 16 -9 12 0 25 -10 32 -25 12 -27
24 -32 31 -12 3 6 3 -9 0 -34 -7 -63 12 -119 40 -120 l22 0 -22 -11 c-27 -13
-29 -25 -5 -30 9 -2 -5 -8 -32 -12 -27 -4 -67 -20 -89 -34 l-39 -26 5 -64 c5
-48 3 -69 -9 -87 -9 -13 -17 -51 -18 -84 -3 -56 -24 -100 -40 -83 -11 10 -26
-20 -26 -50 0 -33 -10 -36 -28 -8 -14 22 -56 27 -69 8 -24 -39 -2 -63 43 -47
16 6 23 1 33 -21 7 -17 21 -30 34 -32 18 -2 22 -9 20 -37 -2 -36 -13 -48 -53
-57 -48 -10 -109 -49 -174 -109 -36 -34 -66 -65 -66 -69 0 -11 19 2 80 54 63
53 100 66 142 49 25 -10 40 -38 21 -40 -39 -4 -61 -17 -115 -69 -54 -52 -61
-62 -51 -78 9 -15 8 -26 -4 -51 -18 -37 -5 -64 20 -43 22 18 26 5 11 -36 -7
-20 -13 -54 -14 -74 0 -36 -2 -38 -30 -38 -39 0 -121 80 -190 186 -73 112 -81
146 -87 384 -5 228 -10 201 83 475 53 157 158 303 242 337 15 6 72 14 127 18
55 4 103 8 107 8 4 1 18 -3 32 -9z m581 -558 c-4 -23 -11 -43 -16 -47 -12 -7
-11 -2 2 52 14 55 24 51 14 -5z m-1388 -588 c-3 -10 -5 -4 -5 12 0 17 2 24 5
18 2 -7 2 -21 0 -30z m169 -582 c14 -14 108 -25 99 -12 -10 17 12 13 53 -8 20
-10 59 -29 86 -40 55 -25 58 -40 3 -17 -20 8 -62 18 -94 21 -81 10 -226 65
-172 65 8 0 19 -4 25 -9z"/>
<path d="M628 1603 c-23 -6 -23 -19 -1 -32 14 -7 15 -12 5 -23 -6 -8 -9 -18
-5 -21 3 -4 0 -7 -8 -7 -8 0 -25 -12 -38 -25 -13 -14 -27 -25 -32 -25 -4 0
-13 -9 -19 -21 -11 -19 -10 -20 12 -6 13 8 33 18 45 22 21 6 22 4 12 -25 -6
-17 -8 -42 -5 -55 4 -17 2 -25 -6 -25 -7 0 0 -7 16 -15 32 -17 86 -20 86 -5 0
6 7 10 15 10 8 0 15 6 15 14 0 8 7 16 15 20 8 3 15 12 15 21 0 8 5 15 11 15 8
0 10 17 7 49 -5 49 -5 50 31 63 l36 14 -55 26 c-56 27 -121 40 -152 31z"/>
<path d="M665 1156 c-13 -14 -45 -102 -52 -141 l-6 -30 26 24 c14 13 25 26 25
30 -3 8 11 51 24 77 12 26 -1 59 -17 40z"/>
<path d="M0 2216 c0 -2 7 -9 15 -16 9 -7 15 -8 15 -2 0 5 -7 12 -15 16 -8 3
-15 4 -15 2z"/>
<path d="M1671 1724 c0 -11 3 -14 6 -6 3 7 2 16 -1 19 -3 4 -6 -2 -5 -13z"/>
<path d="M1709 1634 c-11 -14 -10 -18 6 -30 10 -8 29 -14 42 -14 19 0 23 5 23
30 0 26 -3 30 -29 30 -16 0 -35 -7 -42 -16z"/>
<path d="M357 1598 c-8 -18 -18 -44 -21 -58 -3 -14 5 -1 19 29 14 30 24 56 21
58 -2 2 -10 -11 -19 -29z"/>
<path d="M0 890 c0 -511 1 -530 19 -530 34 0 64 106 72 260 4 85 18 193 38
290 17 85 31 169 31 187 0 44 -19 83 -37 76 -27 -10 -54 35 -69 115 -16 85
-32 132 -45 132 -5 0 -9 -232 -9 -530z m140 250 c0 -5 -4 -10 -10 -10 -5 0
-10 5 -10 10 0 6 5 10 10 10 6 0 10 -4 10 -10z"/>
<path d="M261 1353 c-1 -6 -4 -20 -7 -30 -5 -17 -5 -17 6 0 6 10 9 23 6 30 -3
9 -5 9 -5 0z"/>
<path d="M119 1283 c-1 -10 -3 -29 -4 -43 -4 -34 3 -43 20 -26 10 9 12 26 8
50 -6 37 -22 49 -24 19z"/>
<path d="M86 385 c-3 -8 -1 -15 4 -15 6 0 10 7 10 15 0 8 -2 15 -4 15 -2 0 -6
-7 -10 -15z"/>
<path d="M80 346 c-9 -12 -17 -13 -36 -4 -39 18 -45 2 -42 -121 l3 -112 38 40
39 41 -25 9 c-14 6 -28 15 -32 20 -4 7 4 7 20 -1 24 -11 29 -10 41 7 9 12 11
21 4 23 -5 2 -10 10 -10 18 0 9 5 12 10 9 6 -4 10 12 10 39 0 50 -2 53 -20 32z"/>
<path d="M352 28 c10 -20 19 -23 69 -23 31 0 55 3 52 7 -2 5 -15 8 -29 8 -14
0 -41 7 -61 15 -45 19 -43 19 -31 -7z"/>
<path d="M296 9 c6 -11 41 -12 47 -2 3 5 -8 8 -24 9 -15 1 -26 -3 -23 -7z"/>
</g>
</svg>
