<?xml version="1.0" standalone="no"?>
<!DOCTYPE svg PUBLIC "-//W3C//DTD SVG 20010904//EN"
 "http://www.w3.org/TR/2001/REC-SVG-20010904/DTD/svg10.dtd">
<svg version="1.0" xmlns="http://www.w3.org/2000/svg"
 width="512.000000pt" height="288.000000pt" viewBox="0 0 512.000000 288.000000"
 preserveAspectRatio="xMidYMid meet">

<g transform="translate(0.000000,288.000000) scale(0.100000,-0.100000)"
fill="#000000" stroke="none">
<path d="M3237 2833 c8 -27 21 -61 29 -76 8 -16 14 -43 15 -60 0 -18 3 -26 6
-19 3 9 10 5 19 -13 7 -14 11 -32 8 -39 -3 -7 3 -22 13 -31 12 -13 14 -20 6
-22 -7 -3 -9 -11 -6 -19 3 -8 0 -21 -7 -29 -18 -22 -5 -30 25 -17 23 11 37 0
16 -12 -10 -7 -2 -56 10 -56 5 0 9 -9 9 -20 0 -13 5 -18 15 -14 8 4 15 1 15
-5 0 -6 -4 -11 -10 -11 -16 0 -11 -27 6 -34 9 -4 14 -13 10 -21 -3 -8 0 -15 7
-15 16 0 41 -54 27 -58 -5 -2 -10 -8 -10 -13 0 -6 5 -7 10 -4 6 3 10 -3 10
-15 0 -20 18 -60 32 -70 4 -3 9 -24 10 -47 2 -23 7 -39 12 -36 4 3 5 -5 1 -17
-6 -19 -4 -22 9 -17 13 5 16 0 16 -27 0 -19 6 -36 13 -39 13 -5 57 -82 57
-100 0 -6 6 -18 14 -26 8 -9 17 -35 21 -59 l7 -43 -49 3 -48 3 -3 40 c-8 108
-97 290 -208 424 -7 9 -27 36 -45 60 -22 32 -34 40 -42 32 -6 -6 -18 -11 -27
-10 -10 0 -11 2 -2 6 26 10 10 21 -45 27 -31 4 -76 15 -101 26 -24 11 -53 20
-62 20 -10 0 -20 5 -22 11 -2 7 -15 6 -38 -5 -19 -8 -66 -27 -105 -42 -38 -14
-81 -35 -94 -45 -13 -11 -29 -19 -36 -19 -17 0 -60 -50 -110 -128 -22 -33 -41
-59 -44 -57 -2 3 2 11 9 20 7 9 10 18 7 21 -8 9 -29 -35 -22 -46 3 -6 -15 -49
-41 -98 -77 -142 -91 -173 -115 -247 -12 -38 -24 -77 -27 -85 -3 -8 -7 -37 -9
-65 -3 -59 -24 -135 -36 -135 -5 0 -5 -10 -2 -21 9 -28 -16 -21 -31 9 -10 21
-12 20 -24 -18 -7 -22 -10 -43 -7 -47 4 -3 10 8 13 26 l7 33 13 -32 c12 -27
12 -38 -1 -74 -8 -22 -14 -35 -15 -28 0 6 -4 12 -8 12 -9 0 -35 -99 -31 -116
1 -5 -1 -16 -4 -24 -4 -8 -11 -37 -16 -65 l-9 -50 -2 40 -2 40 -9 -40 c-10
-50 -11 -144 -1 -128 4 6 6 -26 4 -70 -4 -120 -9 -134 -12 -37 l-3 85 -6 -90
c-11 -162 25 -332 82 -393 34 -36 146 -112 166 -112 9 0 27 -11 39 -25 13 -15
33 -25 48 -25 31 0 63 -16 85 -43 17 -22 20 -63 3 -60 -15 3 -59 -89 -55 -115
1 -7 -5 -20 -14 -28 -12 -13 -13 -19 -4 -30 9 -11 8 -14 -5 -14 -9 0 -16 5
-16 10 0 6 -8 5 -20 -2 -18 -12 -19 -13 -2 -20 9 -3 603 -7 1320 -7 l1302 -1
0 910 0 910 -22 -3 c-13 -1 -48 -16 -78 -34 -59 -34 -80 -34 -56 0 9 12 22 36
30 53 24 54 85 81 114 52 9 -9 12 100 12 490 l0 502 -95 0 c-90 0 -95 -1 -95
-21 0 -32 -39 -89 -61 -89 -10 0 -19 -6 -19 -14 0 -13 -44 -28 -54 -19 -7 7
16 53 26 53 4 0 7 3 7 8 -1 4 -1 17 0 30 1 26 21 31 21 5 0 -16 1 -16 16 -1 9
9 14 24 11 33 -6 13 -22 15 -99 13 l-93 -3 -32 -65 c-17 -36 -32 -76 -32 -90
-4 -83 -8 -100 -25 -119 -12 -13 -26 -19 -38 -15 -12 3 -18 0 -18 -10 0 -9 -4
-16 -10 -16 -5 0 -10 16 -10 35 0 33 -2 35 -34 35 -28 0 -34 -4 -38 -25 -3
-14 -2 -25 3 -25 4 0 5 -17 3 -37 -5 -38 -22 -71 -55 -106 -9 -10 -20 -33 -23
-50 -5 -24 -37 -63 -124 -147 -136 -133 -162 -164 -162 -188 0 -9 -5 -24 -11
-32 -8 -12 -9 -9 -5 13 6 26 5 27 -21 21 -16 -3 -34 -7 -40 -10 -7 -2 -13 1
-13 7 0 6 -5 7 -11 3 -6 -3 -7 -9 -3 -13 5 -3 17 -19 26 -36 19 -34 38 -44 38
-20 0 14 3 15 15 5 23 -19 18 -27 -22 -37 -45 -10 -57 -42 -21 -58 19 -9 24
-23 35 -100 7 -49 15 -103 18 -120 3 -16 2 -25 -3 -20 -29 41 -126 76 -231 84
l-83 6 -30 80 c-15 44 -41 116 -57 160 -16 44 -66 181 -111 305 -45 124 -110
306 -144 405 -62 180 -63 180 -94 183 -36 4 -39 -4 -17 -34 8 -12 11 -24 7
-28 -3 -4 -1 -10 6 -15 6 -4 16 -31 22 -61 6 -30 15 -59 20 -64 6 -6 10 -18
10 -29 0 -11 4 -15 11 -11 8 4 9 -1 4 -16 -5 -15 -4 -20 4 -16 13 8 13 0 2
-29 -8 -18 -10 -18 -22 10 -8 17 -18 33 -23 37 -5 3 -11 17 -13 30 -6 39 -25
78 -36 71 -5 -3 -7 -1 -3 5 7 11 -53 152 -65 152 -5 0 -1 -21 8 -47z m214
-417 c8 -28 13 -35 19 -26 6 9 11 2 15 -23 4 -20 12 -37 18 -37 6 0 8 -3 4 -6
-6 -7 15 -71 38 -114 7 -14 18 -45 25 -70 7 -24 20 -62 30 -85 53 -117 126
-315 116 -315 -42 1 -54 13 -60 60 -4 27 -10 52 -15 54 -5 3 -12 22 -15 41 -4
19 -11 35 -15 35 -5 0 -11 10 -14 23 -10 45 -70 203 -83 218 -8 8 -14 28 -14
42 0 15 -4 27 -9 27 -5 0 -12 16 -15 35 -4 19 -11 35 -17 35 -6 0 -7 4 -4 10
9 14 -14 91 -37 122 -10 15 -16 32 -13 38 3 5 0 7 -7 5 -19 -8 -17 36 2 56 13
15 16 11 28 -35 7 -28 17 -69 23 -90z m19 9 c0 -5 -5 -3 -10 5 -5 8 -10 20
-10 25 0 6 5 3 10 -5 5 -8 10 -19 10 -25z m1174 -32 c-4 -15 -20 -38 -37 -52
-16 -13 -35 -31 -42 -38 -8 -7 -20 -13 -27 -13 -8 0 -19 -5 -26 -12 -20 -20
-24 -2 -8 37 22 52 75 100 114 102 30 2 32 1 26 -24z m-1934 -147 c0 -2 -7 -7
-16 -10 -8 -3 -12 -2 -9 4 6 10 25 14 25 6z m1970 -46 c0 -5 -4 -10 -10 -10
-5 0 -10 5 -10 10 0 6 5 10 10 10 6 0 10 -4 10 -10z m-1629 -61 c26 -18 51
-39 54 -48 5 -13 7 -13 15 -1 5 9 7 -2 3 -27 -3 -26 1 -59 11 -89 20 -58 20
-54 -1 -55 -11 0 -13 -3 -6 -6 20 -7 -7 -29 -46 -38 -18 -4 -35 -13 -38 -21
-3 -8 -14 -14 -26 -14 -19 0 -19 -4 -13 -69 4 -52 2 -76 -9 -97 -8 -16 -15
-39 -15 -51 0 -13 -5 -23 -12 -23 -9 0 -9 -3 0 -12 7 -7 12 -18 12 -26 0 -19
-36 -63 -44 -54 -12 11 -26 -21 -26 -58 l-1 -35 -20 28 c-31 41 -89 32 -89
-14 0 -22 24 -31 54 -19 21 8 26 5 36 -21 7 -17 20 -29 31 -29 20 0 33 -31 24
-58 -6 -20 -45 -42 -73 -42 -35 0 -162 -99 -212 -164 -13 -18 -13 -19 0 -11 8
5 40 29 70 55 63 53 100 66 142 49 37 -15 36 -35 -5 -43 -21 -4 -51 -25 -87
-62 -45 -45 -55 -63 -57 -93 -1 -20 -3 -47 -5 -61 -2 -21 1 -25 21 -22 20 2
22 -1 17 -20 -4 -13 -9 -47 -13 -75 -5 -50 -7 -53 -35 -53 -38 0 -118 79 -187
184 -76 116 -91 189 -91 431 0 176 0 175 84 421 36 107 55 146 99 205 97 131
130 150 272 159 55 4 104 8 109 8 4 1 30 -12 57 -29z m2013 -155 c9 -23 -4
-64 -20 -64 -9 0 -14 12 -14 33 0 46 21 65 34 31z m-1458 -375 c-6 -38 -35
-106 -36 -85 0 16 32 126 38 126 2 0 2 -19 -2 -41z m1474 -33 c0 -3 -4 -8 -10
-11 -5 -3 -10 -1 -10 4 0 6 5 11 10 11 6 0 10 -2 10 -4z m-2863 -558 c-3 -7
-5 -2 -5 12 0 14 2 19 5 13 2 -7 2 -19 0 -25z m159 -582 c26 -19 120 -33 110
-17 -11 18 16 13 49 -9 17 -11 38 -20 48 -20 17 0 97 -45 97 -55 0 -2 -20 4
-44 14 -24 11 -70 22 -102 26 -64 8 -148 36 -180 60 -24 18 -5 20 22 1z"/>
<path d="M2708 1883 c-23 -6 -23 -19 -1 -32 14 -7 15 -12 5 -23 -6 -8 -9 -18
-5 -21 3 -4 -3 -7 -15 -7 -12 0 -22 -6 -22 -13 0 -8 -11 -20 -25 -27 -14 -7
-32 -27 -40 -44 l-16 -31 26 28 c14 15 30 27 35 27 4 0 15 3 23 6 12 4 13 -1
4 -36 -9 -33 -9 -43 2 -49 11 -7 11 -10 -2 -17 -11 -7 -7 -12 19 -25 18 -9 31
-12 28 -7 -3 5 6 6 20 2 16 -4 26 -2 26 5 0 6 7 11 15 11 8 0 15 7 15 15 0 8
4 15 10 15 18 0 43 69 37 106 -5 27 -2 36 11 40 54 17 54 19 0 46 -52 26 -117
39 -150 31z"/>
<path d="M2751 1448 c-1 -10 -5 -18 -11 -18 -5 0 -10 -8 -10 -17 -1 -10 -11
-43 -24 -73 -26 -60 -24 -81 4 -55 30 27 63 127 51 155 -7 18 -10 20 -10 8z"/>
<path d="M4410 2858 c1 -7 7 -24 15 -38 14 -24 14 -24 15 -3 0 28 -10 53 -21
53 -5 0 -9 -6 -9 -12z"/>
<path d="M2080 2496 c0 -2 8 -10 18 -17 15 -13 16 -12 3 4 -13 16 -21 21 -21
13z"/>
<path d="M3745 2010 c-3 -5 -1 -10 4 -10 6 0 11 5 11 10 0 6 -2 10 -4 10 -3 0
-8 -4 -11 -10z"/>
<path d="M3789 1914 c-11 -14 -10 -18 6 -30 10 -8 29 -14 41 -14 28 0 69 33
60 48 -11 18 -91 15 -107 -4z"/>
<path d="M2431 1861 c-29 -69 -26 -78 5 -12 13 30 23 56 20 58 -2 2 -13 -19
-25 -46z"/>
<path d="M1910 1775 c0 -5 5 -17 10 -25 5 -8 10 -10 10 -5 0 6 -5 17 -10 25
-5 8 -10 11 -10 5z"/>
<path d="M1854 1757 c-3 -9 -11 -14 -18 -11 -13 5 -39 -20 -49 -47 -4 -13 -1
-16 14 -12 10 3 19 12 19 19 0 17 12 18 29 2 10 -11 11 -10 5 5 -3 9 -1 24 6
32 7 9 10 18 7 22 -4 3 -9 -1 -13 -10z"/>
<path d="M1970 1764 c0 -3 9 -17 20 -31 25 -33 25 -58 0 -83 l-21 -21 7 28 c7
25 6 27 -9 14 -14 -11 -17 -11 -17 0 -1 8 -10 -8 -20 -35 -11 -27 -23 -52 -28
-55 -15 -10 -78 -134 -106 -207 -27 -72 -57 -110 -111 -139 l-30 -16 35 6 c19
4 43 14 53 23 9 8 19 13 21 11 13 -13 -71 -52 -136 -63 -51 -9 -65 -15 -48
-18 18 -4 14 -6 -15 -6 -25 -1 -35 1 -27 7 8 4 -37 10 -107 14 -67 3 -129 11
-139 17 -14 9 -10 10 19 5 19 -3 72 -7 117 -10 69 -4 81 -3 76 10 -4 8 -10 15
-15 15 -5 0 -9 8 -9 17 0 14 -3 13 -16 -5 -11 -16 -22 -21 -36 -16 -11 3 -48
6 -82 6 -33 0 -66 4 -73 10 -7 5 -19 31 -28 56 -29 88 -158 203 -209 187 -53
-17 -51 -16 -36 -25 11 -7 4 -10 -25 -10 -30 0 -36 -3 -25 -10 12 -8 12 -10 1
-10 -9 0 -11 -7 -8 -21 4 -15 -1 -22 -19 -29 -16 -7 -24 -17 -24 -34 0 -13 -7
-26 -15 -29 -15 -6 -55 -81 -55 -104 0 -7 -9 -13 -20 -13 -17 0 -20 -7 -21
-42 -1 -24 -1 -47 0 -51 3 -16 -22 -87 -31 -87 -4 0 -8 -6 -8 -14 0 -7 -6 -19
-14 -25 -8 -7 -21 -32 -30 -57 -12 -36 -12 -44 -1 -44 21 0 27 -32 11 -65 -8
-16 -17 -38 -20 -48 -3 -10 -10 -16 -16 -12 -5 3 -15 -3 -21 -14 -7 -10 -18
-17 -25 -14 -7 3 -25 -15 -42 -41 -15 -26 -31 -43 -35 -40 -4 4 -7 3 -7 -3 0
-11 -111 -83 -129 -83 -6 0 -11 -11 -11 -25 0 -17 -5 -25 -18 -25 -10 0 -27
-7 -38 -15 -10 -8 -26 -15 -35 -15 -24 0 -32 -30 -14 -50 21 -24 19 -38 -12
-64 l-27 -24 82 -26 c46 -14 94 -26 107 -26 32 0 40 -16 12 -24 -59 -16 -162
-3 -239 29 -15 6 -16 2 -12 -32 3 -21 8 -45 11 -53 4 -8 5 -20 4 -27 -2 -14
102 -63 133 -63 13 0 56 27 97 59 41 33 76 55 77 50 2 -5 -11 -23 -29 -38 -29
-26 -30 -29 -13 -34 31 -9 123 -2 136 11 23 23 29 12 9 -17 -11 -16 -40 -38
-63 -49 -24 -11 -52 -34 -63 -51 -11 -17 -23 -31 -27 -31 -5 0 -8 -4 -8 -10 0
-6 127 -10 361 -10 l362 0 54 31 c42 24 72 54 126 126 40 52 87 119 105 148
18 30 57 78 87 107 31 29 91 88 134 130 79 79 94 88 107 66 4 -7 3 -8 -4 -4
-7 4 -12 2 -12 -3 0 -16 20 -13 26 3 7 19 135 42 158 29 10 -5 39 -5 75 1 l60
10 22 60 c17 46 25 94 30 196 7 118 28 259 59 397 21 90 4 164 -33 150 -10 -4
-18 1 -22 14 -4 10 -10 17 -15 14 -4 -3 -16 38 -25 91 -17 91 -21 100 -63 145
-34 37 -51 48 -65 43 -13 -4 -17 -2 -13 5 4 6 0 11 -8 11 -9 0 -16 -3 -16 -6z
m79 -58 c-3 -3 -11 5 -18 17 -13 21 -12 21 5 5 10 -10 16 -20 13 -22z m171
-286 c0 -5 -4 -10 -10 -10 -5 0 -10 5 -10 10 0 6 5 10 10 10 6 0 10 -4 10 -10z
m-795 -299 c17 -5 62 -14 100 -20 124 -21 219 -42 253 -57 31 -13 58 -56 46
-75 -3 -5 7 -9 21 -9 22 0 26 -4 23 -22 -2 -13 -9 -22 -16 -20 -6 1 -12 -2
-12 -8 0 -13 -33 -13 -47 1 -8 8 -13 5 -18 -10 -3 -12 -11 -19 -16 -16 -5 4
-9 1 -9 -4 0 -6 -6 -11 -13 -11 -7 0 -21 -15 -30 -32 -10 -18 -35 -55 -57 -83
-31 -38 -37 -52 -27 -60 6 -5 13 -18 15 -27 2 -13 -4 -18 -22 -18 -29 0 -56
-24 -56 -51 0 -10 -4 -19 -10 -19 -5 0 -10 -11 -10 -25 0 -27 9 -32 28 -13 42
42 -28 -68 -111 -175 -95 -122 -182 -161 -222 -100 -17 25 -17 27 1 40 10 7
14 13 9 13 -9 0 22 28 52 46 17 11 17 13 -5 34 -20 19 -26 20 -60 9 -20 -6
-44 -18 -53 -26 -14 -12 -25 -7 -89 43 -41 31 -82 65 -93 75 -12 10 -29 21
-39 25 -10 3 -18 12 -18 20 0 8 -3 14 -7 14 -5 0 -16 7 -27 15 -28 21 -5 70
39 85 35 11 205 168 205 188 0 6 20 44 44 84 25 40 55 104 67 141 l21 69 57
-6 c31 -3 70 -10 86 -15z m449 -236 c8 -22 -37 -90 -101 -152 -29 -28 -53 -49
-53 -46 0 17 51 111 70 128 11 10 30 34 41 52 23 36 34 41 43 18z m-1492 -497
c-9 -9 -15 -9 -24 0 -9 9 -7 12 12 12 19 0 21 -3 12 -12z m-62 -22 c0 -2 -8
-10 -17 -17 -16 -13 -17 -12 -4 4 13 16 21 21 21 13z"/>
<path d="M1755 1669 c-4 -6 -5 -12 -2 -15 2 -3 7 2 10 11 7 17 1 20 -8 4z"/>
<path d="M2341 1624 c0 -11 3 -14 6 -6 3 7 2 16 -1 19 -3 4 -6 -2 -5 -13z"/>
<path d="M2356 1603 c-6 -14 -5 -15 5 -6 7 7 10 15 7 18 -3 3 -9 -2 -12 -12z"/>
<path d="M2196 1558 c-4 -19 -3 -63 3 -76 0 -2 8 3 16 11 10 10 12 26 8 51 -6
41 -20 47 -27 14z"/>
<path d="M2311 1534 c0 -11 3 -14 6 -6 3 7 2 16 -1 19 -3 4 -6 -2 -5 -13z"/>
<path d="M2280 1344 c0 -8 5 -12 10 -9 6 3 10 10 10 16 0 5 -4 9 -10 9 -5 0
-10 -7 -10 -16z"/>
<path d="M1628 1213 c7 -3 16 -2 19 1 4 3 -2 6 -13 5 -11 0 -14 -3 -6 -6z"/>
<path d="M2165 660 c-3 -5 -1 -10 4 -10 6 0 11 5 11 10 0 6 -2 10 -4 10 -3 0
-8 -4 -11 -10z"/>
<path d="M2165 630 c-4 -6 -23 -7 -46 -4 -39 7 -47 -1 -40 -40 1 -4 -10 -5
-24 -2 -29 7 -34 -8 -8 -23 10 -5 15 -12 11 -16 -3 -4 -43 10 -89 29 -86 37
-111 44 -92 25 8 -8 5 -25 -9 -62 -11 -29 -29 -77 -40 -107 -11 -30 -31 -80
-45 -110 -56 -122 -133 -302 -133 -311 0 -20 16 -7 29 24 28 63 61 107 81 107
17 0 18 -3 9 -27 -6 -16 -10 -30 -10 -33 0 -3 -8 -3 -17 -2 -9 2 -14 1 -11 -2
14 -14 59 -16 59 -3 0 7 23 33 51 57 29 24 74 71 101 105 28 33 89 99 135 147
l85 88 -26 10 c-33 12 -34 22 -2 14 19 -4 27 0 37 17 9 17 9 24 0 27 -6 2 -11
8 -11 13 0 6 5 7 10 4 6 -4 10 12 10 39 0 46 -4 55 -15 36z m-385 -454 c0 -2
-8 -10 -17 -17 -16 -13 -17 -12 -4 4 13 16 21 21 21 13z"/>
<path d="M1961 598 c11 -10 27 -18 34 -18 8 0 11 7 9 18 -4 11 -15 17 -35 17
l-30 0 22 -17z"/>
<path d="M1739 557 c-36 -38 -49 -59 -43 -69 4 -6 3 -8 -3 -5 -6 4 -13 -1 -16
-11 -3 -9 -15 -44 -27 -77 -12 -33 -23 -70 -25 -83 -1 -13 -12 -32 -24 -43
-18 -17 -21 -32 -22 -97 -1 -70 -2 -73 -10 -37 -15 66 -17 109 -6 130 6 11 11
33 13 49 1 15 11 40 21 55 18 25 36 71 27 71 -14 0 -85 -93 -116 -152 -37 -68
-38 -72 -38 -179 l0 -109 78 0 77 0 74 168 c82 187 141 339 141 363 0 9 -7 20
-16 23 -23 9 -24 8 -25 -16 0 -21 -1 -21 -8 -4 -8 20 -16 -3 -40 -114 -18 -85
-39 -155 -40 -138 -1 10 11 77 25 149 14 72 23 133 21 136 -3 2 -11 -3 -18
-10z m-118 -387 l-8 -75 -2 62 c-1 54 6 99 14 91 2 -2 0 -37 -4 -78z"/>
<path d="M2204 473 c-16 -16 -40 -42 -54 -58 -14 -17 -37 -35 -51 -42 -15 -6
-44 -33 -65 -60 -22 -26 -42 -49 -46 -51 -5 -2 -8 -10 -8 -17 0 -7 -4 -15 -8
-17 -4 -1 -30 -32 -57 -68 -51 -68 -83 -102 -131 -138 l-29 -21 102 -1 102 0
39 72 c22 40 52 109 67 153 15 44 31 84 35 89 5 5 6 15 3 22 -3 8 -1 14 5 14
16 0 19 -22 9 -65 -5 -22 -9 -50 -8 -62 0 -13 -4 -23 -9 -23 -6 0 -10 -7 -10
-16 0 -8 -12 -36 -27 -62 -14 -26 -33 -60 -41 -77 -9 -17 -20 -34 -26 -38 -6
-5 4 -6 24 -3 64 12 129 98 161 215 22 82 66 190 87 214 15 16 14 20 -9 43
l-25 25 -30 -28z"/>
<path d="M2360 366 c0 -2 7 -6 15 -10 8 -3 15 -1 15 4 0 6 -7 10 -15 10 -8 0
-15 -2 -15 -4z"/>
<path d="M2432 310 c7 -11 17 -20 23 -21 66 -4 105 -3 105 4 0 4 -14 7 -30 7
-17 0 -47 7 -67 15 -45 19 -46 19 -31 -5z"/>
<path d="M2373 297 c4 -11 -5 -34 -27 -65 -18 -26 -46 -72 -62 -102 -16 -30
-33 -58 -39 -62 -5 -4 -6 -8 -1 -8 5 0 1 -9 -9 -20 -25 -28 -13 -34 25 -13 32
18 43 34 76 110 11 24 22 43 27 43 4 0 5 11 1 25 -5 21 1 32 30 60 21 19 30
32 22 29 -9 -4 -24 0 -33 7 -15 12 -16 12 -10 -4z"/>
<path d="M2403 247 c-6 -13 -8 -30 -3 -37 5 -8 10 -2 15 19 9 40 2 49 -12 18z"/>
<path d="M2446 254 c-5 -12 -2 -15 10 -10 8 3 18 6 20 6 3 0 2 5 -1 10 -9 15
-22 12 -29 -6z"/>
<path d="M490 70 c-13 -8 -12 -10 3 -10 9 0 17 5 17 10 0 12 -1 12 -20 0z"/>
<path d="M261 51 c-23 -15 3 -20 29 -5 22 12 23 13 5 13 -11 1 -26 -3 -34 -8z"/>
<path d="M1760 41 c0 -5 -9 -13 -20 -16 -23 -7 -27 -25 -7 -25 14 0 47 31 47
43 0 4 -4 7 -10 7 -5 0 -10 -4 -10 -9z"/>
<path d="M60 30 c-8 -5 -25 -10 -37 -10 -13 0 -23 -4 -23 -10 0 -5 20 -10 44
-10 40 0 56 11 56 36 0 7 -25 4 -40 -6z"/>
<path d="M1240 10 c-13 -8 -12 -10 3 -10 9 0 17 5 17 10 0 12 -1 12 -20 0z"/>
<path d="M2265 10 c-3 -5 -1 -10 4 -10 6 0 11 5 11 10 0 6 -2 10 -4 10 -3 0
-8 -4 -11 -10z"/>
<path d="M2325 10 c-3 -5 1 -10 10 -10 9 0 13 5 10 10 -3 6 -8 10 -10 10 -2 0
-7 -4 -10 -10z"/>
<path d="M148 3 c7 -3 16 -2 19 1 4 3 -2 6 -13 5 -11 0 -14 -3 -6 -6z"/>
<path d="M1383 3 c9 -2 23 -2 30 0 6 3 -1 5 -18 5 -16 0 -22 -2 -12 -5z"/>
</g>
</svg>
