<svg xmlns="http://www.w3.org/2000/svg" width="800" height="600" viewBox="0 0 800 600">
  <defs>
    <style>
      .cls-1 {
        fill: #030303;
      }

      .cls-2, .cls-4 {
        fill: #faf7f8;
      }

      .cls-3, .cls-4 {
        fill-rule: evenodd;
      }
    </style>
  </defs>
  <rect id="camera_phone_body" data-name="camera phone body" class="cls-1" x="192" y="296" width="481" height="241" rx="10" ry="10"/>
  <circle id="bottom_camera_lens_cutout" data-name="bottom camera lens cutout" class="cls-2" cx="264.5" cy="464.5" r="24.5"/>
  <circle id="top_camera_lens_cutout" data-name="top camera lens cutout" class="cls-2" cx="264.5" cy="368.5" r="24.5"/>
  <rect id="rectangle_between_camera_lenses" data-name="rectangle between camera lenses" class="cls-2" x="240" y="368" width="49" height="97"/>
  <path id="top_camera_lens" data-name="top camera lens" class="cls-3" d="M264,358a10,10,0,1,1-10,10A10,10,0,0,1,264,358Zm0,0a10,10,0,1,1-10,10A10,10,0,0,1,264,358Zm0,0a10,10,0,1,1-10,10A10,10,0,0,1,264,358Z"/>
  <circle id="bottom_camera_lens" data-name="bottom camera lens" cx="264" cy="464" r="10"/>
  <rect id="Rounded_Rectangle_1" data-name="Rounded Rectangle 1" x="312" y="289" width="97" height="15" rx="7.5" ry="7.5"/>
  <path id="arrow" class="cls-4" d="M339.521,99.015v88.607H301.993L374.5,267.985l72.507-80.363H409.479V99.015H339.521Z"/>
</svg>
