<?xml version="1.0" standalone="no"?>
<!DOCTYPE svg PUBLIC "-//W3C//DTD SVG 20010904//EN"
 "http://www.w3.org/TR/2001/REC-SVG-20010904/DTD/svg10.dtd">
<svg version="1.0" xmlns="http://www.w3.org/2000/svg"
 width="80.000000pt" height="80.000000pt" viewBox="0 0 80.000000 80.000000"
 preserveAspectRatio="xMidYMid meet">

<g transform="translate(0.000000,80.000000) scale(0.100000,-0.100000)"
fill="#000000" stroke="none">
<path d="M0 704 c0 -91 1 -97 26 -116 14 -11 23 -23 20 -25 -3 -3 2 -22 11
-42 22 -50 28 -215 7 -207 -8 3 -14 1 -14 -5 0 -6 -5 -7 -10 -4 -6 3 -10 1
-10 -4 0 -6 6 -11 13 -11 9 0 8 -3 -2 -9 -17 -11 -5 -15 89 -31 116 -20 134
-40 87 -95 l-23 -27 -69 15 c-48 10 -61 16 -40 17 29 2 30 2 5 9 -14 4 -40 11
-57 14 l-33 7 0 -56 c0 -35 4 -56 13 -58 52 -16 50 -14 33 -41 -13 -19 -13
-23 -2 -19 8 3 17 1 21 -5 3 -6 14 -11 23 -11 12 0 13 3 5 8 -17 11 -2 28 25
28 23 0 32 -15 10 -17 -7 0 0 -5 15 -11 22 -8 32 -7 46 6 22 20 54 20 91 1 17
-9 30 -11 30 -5 0 6 28 10 68 10 47 0 63 -3 52 -10 -12 -8 -9 -10 13 -10 19 0
26 4 21 12 -5 8 -2 9 12 3 10 -4 30 -10 43 -13 18 -4 22 -2 16 9 -6 11 -5 12
6 2 19 -18 26 -16 33 10 l6 22 20 -25 c20 -25 29 -22 44 15 2 6 9 5 17 -2 7
-7 20 -13 29 -13 10 0 8 6 -10 20 -14 11 -33 17 -42 14 -9 -3 -20 2 -25 9 -4
8 -24 18 -43 22 -31 7 -33 6 -22 -8 11 -13 10 -18 -11 -32 -22 -14 -37 -15
-104 -6 -43 5 -112 13 -153 17 -100 9 -112 11 -122 26 -6 10 -8 10 -8 0 0 -7
-5 -10 -11 -6 -8 4 -7 9 2 15 7 4 16 6 20 3 4 -2 56 0 116 5 97 8 115 12 159
40 54 34 45 42 -13 11 -21 -11 -45 -20 -54 -20 -27 0 -69 40 -69 65 0 14 -7
25 -20 28 -16 4 -20 14 -20 47 0 23 -4 49 -10 59 -5 10 -11 41 -14 68 -4 46
-3 49 21 51 13 1 32 -2 42 -7 10 -6 23 -6 34 0 12 7 17 6 17 -1 0 -6 10 -10
23 -8 35 5 35 45 -2 75 -25 21 -29 30 -25 57 17 95 43 114 128 92 61 -16 96
-39 96 -63 0 -7 6 -16 14 -19 8 -3 12 -13 9 -25 -3 -11 0 -19 6 -19 13 0 9
-138 -5 -173 -12 -31 5 -17 22 18 9 19 20 35 25 35 13 0 27 69 28 140 1 36 4
73 7 84 4 12 2 16 -5 12 -7 -4 -11 1 -11 13 0 22 -31 81 -42 81 -5 0 -8 6 -8
14 0 7 -11 21 -25 30 -21 14 -63 16 -305 16 l-280 0 0 -96z m87 -196 c-3 -8
-6 -5 -6 6 -1 11 2 17 5 13 3 -3 4 -12 1 -19z m238 -8 c4 -6 -6 -10 -22 -10
-22 0 -25 2 -13 10 19 12 27 12 35 0z m-230 -20 c3 -5 1 -10 -4 -10 -6 0 -11
5 -11 10 0 6 2 10 4 10 3 0 8 -4 11 -10z m-52 -317 c-7 -2 -19 -2 -25 0 -7 3
-2 5 12 5 14 0 19 -2 13 -5z m55 -86 c8 -10 6 -13 -9 -14 -19 -2 -25 8 -12 20
8 9 9 9 21 -6z"/>
<path d="M495 478 c-35 -20 -46 -48 -20 -48 8 0 15 -7 15 -15 0 -11 11 -15 40
-15 38 0 40 2 30 20 -6 11 -22 23 -35 26 -33 8 -32 22 2 30 20 6 31 2 45 -16
10 -12 18 -18 18 -13 0 16 -35 43 -56 43 -10 0 -28 -6 -39 -12z"/>
<path d="M317 328 c-38 -53 -30 -99 19 -123 19 -9 40 -14 47 -12 7 3 0 9 -15
15 -14 6 -29 15 -32 20 -8 13 25 21 49 11 11 -4 30 -5 43 -2 14 3 22 0 22 -7
0 -7 9 -1 20 13 19 24 19 28 6 59 l-14 33 -1 -37 c-1 -44 -6 -45 -80 -18 -65
24 -69 27 -34 28 42 3 104 20 75 21 -24 1 -63 18 -72 31 -3 4 -18 -10 -33 -32z"/>
<path d="M624 344 c-2 -23 -1 -24 13 -7 14 17 14 17 9 0 -6 -20 6 -48 38 -88
l21 -26 48 20 47 20 0 54 c0 49 -2 54 -17 47 -22 -10 -100 -11 -133 -2 -22 6
-25 4 -26 -18z"/>
<path d="M20 240 c14 -4 34 -8 45 -8 16 0 15 2 -5 8 -14 4 -34 8 -45 8 -16 0
-15 -2 5 -8z"/>
<path d="M0 217 c0 -20 17 -25 98 -33 97 -8 58 16 -65 41 -25 5 -33 3 -33 -8z"/>
<path d="M108 223 c7 -3 16 -2 19 1 4 3 -2 6 -13 5 -11 0 -14 -3 -6 -6z"/>
<path d="M779 48 c-7 -25 -3 -48 8 -48 15 0 18 36 3 45 -5 3 -10 5 -11 3z"/>
</g>
</svg>
